<svg width="32" height="32" viewBox="0 0 32 32" fill="none" xmlns="http://www.w3.org/2000/svg">
  <!-- Dark background -->
  <rect width="32" height="32" rx="6" fill="#0f172a"/>
  
  <!-- Letter B with interconnected nodes and lines -->
  <defs>
    <linearGradient id="bGradient" x1="0%" y1="100%" x2="0%" y2="0%">
      <stop offset="0%" style="stop-color:#1e40af;stop-opacity:1" />
      <stop offset="50%" style="stop-color:#3b82f6;stop-opacity:1" />
      <stop offset="100%" style="stop-color:#06b6d4;stop-opacity:1" />
    </linearGradient>
  </defs>
  
  <!-- Nodes (circles) -->
  <circle cx="8" cy="8" r="2.5" fill="url(#bGradient)" stroke="url(#bGradient)" stroke-width="0.5"/>
  <circle cx="8" cy="16" r="2.5" fill="url(#bGradient)" stroke="url(#bGradient)" stroke-width="0.5"/>
  <circle cx="8" cy="24" r="2.5" fill="url(#bGradient)" stroke="url(#bGradient)" stroke-width="0.5"/>
  
  <!-- Top loop nodes -->
  <circle cx="16" cy="8" r="2.5" fill="url(#bGradient)" stroke="url(#bGradient)" stroke-width="0.5"/>
  <circle cx="22" cy="8" r="2.5" fill="url(#bGradient)" stroke="url(#bGradient)" stroke-width="0.5"/>
  <circle cx="24" cy="12" r="2.5" fill="url(#bGradient)" stroke="url(#bGradient)" stroke-width="0.5"/>
  
  <!-- Bottom loop nodes -->
  <circle cx="16" cy="24" r="2.5" fill="url(#bGradient)" stroke="url(#bGradient)" stroke-width="0.5"/>
  <circle cx="22" cy="24" r="2.5" fill="url(#bGradient)" stroke="url(#bGradient)" stroke-width="0.5"/>
  <circle cx="24" cy="20" r="2.5" fill="url(#bGradient)" stroke="url(#bGradient)" stroke-width="0.5"/>
  
  <!-- Connecting lines -->
  <path d="M10.5 8 L13.5 8" stroke="url(#bGradient)" stroke-width="3" stroke-linecap="round"/>
  <path d="M10.5 16 L13.5 16" stroke="url(#bGradient)" stroke-width="3" stroke-linecap="round"/>
  <path d="M10.5 24 L13.5 24" stroke="url(#bGradient)" stroke-width="3" stroke-linecap="round"/>
  
  <!-- Top loop curves -->
  <path d="M18.5 8 L21.5 8" stroke="url(#bGradient)" stroke-width="3" stroke-linecap="round"/>
  <path d="M22 10.5 L23.5 11.5" stroke="url(#bGradient)" stroke-width="3" stroke-linecap="round"/>
  <path d="M8 10.5 L16 10.5" stroke="url(#bGradient)" stroke-width="3" stroke-linecap="round"/>
  
  <!-- Bottom loop curves -->
  <path d="M18.5 24 L21.5 24" stroke="url(#bGradient)" stroke-width="3" stroke-linecap="round"/>
  <path d="M22 21.5 L23.5 20.5" stroke="url(#bGradient)" stroke-width="3" stroke-linecap="round"/>
  <path d="M8 21.5 L16 21.5" stroke="url(#bGradient)" stroke-width="3" stroke-linecap="round"/>
  
  <!-- Diagonal connections -->
  <path d="M10.5 10.5 L13.5 13.5" stroke="url(#bGradient)" stroke-width="2" stroke-linecap="round" opacity="0.7"/>
  <path d="M10.5 21.5 L13.5 18.5" stroke="url(#bGradient)" stroke-width="2" stroke-linecap="round" opacity="0.7"/>
</svg>