<svg width="64" height="64" viewBox="0 0 64 64" fill="none" xmlns="http://www.w3.org/2000/svg">
  <defs>
    <linearGradient id="bg-gradient" x1="0%" y1="0%" x2="100%" y2="100%">
      <stop offset="0%" style="stop-color:#0a1628;stop-opacity:1" />
      <stop offset="100%" style="stop-color:#1e293b;stop-opacity:1" />
    </linearGradient>
    <linearGradient id="b-gradient" x1="0%" y1="100%" x2="100%" y2="0%">
      <stop offset="0%" style="stop-color:#1e40af;stop-opacity:1" />
      <stop offset="50%" style="stop-color:#3b82f6;stop-opacity:1" />
      <stop offset="100%" style="stop-color:#06b6d4;stop-opacity:1" />
    </linearGradient>
  </defs>
  
  <!-- Dark background -->
  <rect width="64" height="64" rx="12" fill="url(#bg-gradient)"/>
  
  <!-- Stylized B -->
  <g transform="translate(16, 10)">
    <!-- Lines -->
    <g stroke="url(#b-gradient)" stroke-width="2.5" stroke-linecap="round" stroke-linejoin="round" fill="none">
      <line x1="3" y1="4" x2="3" y2="22" />
      <line x1="3" y1="22" x2="3" y2="40" />
      <path d="M 3 4 Q 20 3 22 11 Q 23 18 15 22" />
      <path d="M 3 40 Q 25 42 26 30 Q 26 23 15 22" />
      <line x1="3" y1="22" x2="15" y2="22" />
    </g>
    
    <!-- Nodes -->
    <g fill="url(#b-gradient)">
      <circle cx="3" cy="4" r="2" />
      <circle cx="3" cy="22" r="2.2" />
      <circle cx="3" cy="40" r="2" />
      <circle cx="22" cy="10" r="1.8" />
      <circle cx="15" cy="22" r="2.2" />
      <circle cx="26" cy="27" r="1.8" />
      <circle cx="24" cy="37" r="1.8" />
    </g>
  </g>
</svg>
